
<svg data-v-0dd9719b="" version="1.0" xmlns="http://www.w3.org/2000/svg" xmlns:xlink="http://www.w3.org/1999/xlink" width="100%" height="100%" viewBox="0 0 340.000000 250.000000" preserveAspectRatio="xMidYMid meet" color-interpolation-filters="sRGB" style="margin: auto;">   <g data-v-0dd9719b="" fill="#ffffff" class="icon-text-wrapper icon-svg-group iconsvg" transform="translate(72.35929107666016,95.59601783752441)"><g class="iconsvg-imagesvg" transform="translate(0,0)"><g> <svg x="0" y="0" width="60" height="58.80796259813579" filtersec="colorsb2767597835" class="image-svg-svg primary" style="overflow: visible;"><svg xmlns="http://www.w3.org/2000/svg" viewBox="0.3100004196166992 1.374999761581421 99.38999938964844 97.41499328613281"><path fill="#ffffff" d="M90.58 20.94L57.87 3.55c-4.97-2.9-11.18-2.9-16.15 0L9.42 20.94c-5.8 2.9-9.11 8.7-9.11 14.91v28.16c0 6.63 3.31 12.42 8.7 15.32l32.72 17.39c2.9 1.24 5.38 2.07 8.28 2.07s5.38-.83 7.87-1.66l32.3-16.56c5.8-2.9 9.52-8.7 9.52-15.32V36.26c-.01-6.62-3.32-12.42-9.12-15.32zM45.44 10.59c1.24-.83 2.48-1.24 4.14-1.24 1.66 0 2.9.41 4.56 1.24l32.21 17.12-30.97 14.77c-1.85.86-3.44 2.04-4.82 3.42L13.58 27.75l31.86-17.16zm-32.3 61.29c-2.9-1.66-4.56-4.56-4.56-7.87V35.85c0-.42.03-.83.08-1.23l37.57 18.44a17.54 17.54 0 0 0-.79 5.16l.36 31.03-32.66-17.37zm78.27-7.04c0 3.31-2.07 6.21-4.97 7.87L54.5 89.09l-.35-30.88c0-3.73 2.07-6.63 4.97-8.28L91.3 34.41c.07.47.12.95.12 1.44v28.99z"></path></svg></svg> <!----></g></g> <g transform="translate(67,4.515802383422852)"><g data-gra="path-name" fill-rule="" class="tp-name iconsvg-namesvg" transform="translate(0,0)"><g transform="scale(1)"><g><path d="M3.88-16.13L12.7-16.13Q12.84-15.92 12.96-15.56 13.08-15.2 13.08-14.78L13.08-14.78Q13.08-14.06 12.74-13.69 12.41-13.32 11.85-13.32L11.85-13.32 5.45-13.32 5.45-9.09 11.8-9.09Q11.93-8.88 12.05-8.53 12.17-8.19 12.17-7.76L12.17-7.76Q12.17-7.04 11.84-6.68 11.51-6.33 10.95-6.33L10.95-6.33 5.5-6.33 5.5-0.03Q5.26 0.03 4.82 0.11 4.39 0.19 3.91 0.19L3.91 0.19Q2.9 0.19 2.47-0.19 2.05-0.56 2.05-1.44L2.05-1.44 2.05-14.3Q2.05-15.15 2.54-15.64 3.03-16.13 3.88-16.13L3.88-16.13ZM19.43-5.63L19.43-0.03Q19.19 0.03 18.75 0.11 18.31 0.19 17.81 0.19L17.81 0.19Q16.8 0.19 16.39-0.19 15.97-0.56 15.97-1.44L15.97-1.44 15.97-14.78Q15.97-15.28 16.24-15.55 16.51-15.81 16.98-15.97L16.98-15.97Q17.83-16.27 18.99-16.39 20.15-16.51 21.37-16.51L21.37-16.51Q24.88-16.51 26.63-15.06 28.39-13.61 28.39-11.06L28.39-11.06Q28.39-9.38 27.51-8.15 26.63-6.91 25.09-6.25L25.09-6.25Q26.26-4.73 27.34-3.36 28.41-1.99 28.95-1.22L28.95-1.22Q28.73-0.53 28.2-0.15 27.67 0.24 27.03 0.24L27.03 0.24Q26.21 0.24 25.77-0.13 25.33-0.51 24.9-1.14L24.9-1.14 21.9-5.63 19.43-5.63ZM19.38-8.35L21.56-8.35Q23.07-8.35 23.99-9.01 24.9-9.67 24.9-11.03L24.9-11.03Q24.9-13.71 21.32-13.71L21.32-13.71Q20.79-13.71 20.29-13.66 19.8-13.61 19.38-13.56L19.38-13.56 19.38-8.35ZM46.99-8.08L46.99-8.08Q46.99-6.01 46.38-4.41 45.77-2.82 44.69-1.74 43.62-0.66 42.13-0.12 40.64 0.43 38.91 0.43L38.91 0.43Q37.18 0.43 35.7-0.12 34.21-0.66 33.13-1.74 32.05-2.82 31.44-4.41 30.83-6.01 30.83-8.08L30.83-8.08Q30.83-10.15 31.46-11.73 32.08-13.32 33.17-14.39 34.26-15.47 35.74-16.01 37.21-16.56 38.91-16.56L38.91-16.56Q40.61-16.56 42.09-16.01 43.56-15.47 44.65-14.39 45.74-13.32 46.37-11.73 46.99-10.15 46.99-8.08ZM43.46-8.08L43.46-8.08Q43.46-10.84 42.22-12.29 40.99-13.74 38.91-13.74L38.91-13.74Q36.87-13.74 35.63-12.31 34.39-10.87 34.39-8.08L34.39-8.08Q34.39-5.29 35.62-3.85 36.84-2.42 38.91-2.42L38.91-2.42Q40.99-2.42 42.22-3.85 43.46-5.29 43.46-8.08ZM51.99 0.19L51.99 0.19Q51.01 0.19 50.61-0.17 50.21-0.53 50.21-1.38L50.21-1.38 50.21-15.55Q50.5-15.92 51.07-16.13 51.64-16.35 52.33-16.35L52.33-16.35Q53.16-16.35 53.81-16.05 54.46-15.76 54.97-14.88L54.97-14.88 58.79-8Q59.33-7.04 59.82-6.02 60.31-5 60.68-4.15L60.68-4.15 60.79-4.17Q60.65-5.74 60.61-7.22 60.57-8.69 60.57-10.13L60.57-10.13 60.57-16.16Q60.79-16.21 61.23-16.28 61.66-16.35 62.12-16.35L62.12-16.35Q63.1-16.35 63.51-15.99 63.92-15.63 63.92-14.78L63.92-14.78 63.92-0.43Q63.63-0.13 63.09 0.03 62.54 0.19 61.8 0.19L61.8 0.19Q61 0.19 60.35-0.09 59.7-0.37 59.19-1.25L59.19-1.25 55.36-8.13Q54.83-9.06 54.34-10.11 53.85-11.16 53.48-12.01L53.48-12.01 53.32-11.99Q53.45-10.53 53.49-8.98 53.53-7.44 53.53-6.06L53.53-6.06 53.53-0.03Q53.32 0.03 52.89 0.11 52.47 0.19 51.99 0.19ZM79.37-16.13L79.37-16.13Q79.5-15.92 79.62-15.56 79.74-15.2 79.74-14.78L79.74-14.78Q79.74-14.06 79.41-13.69 79.07-13.32 78.49-13.32L78.49-13.32 74.82-13.32 74.82-0.03Q74.61 0.03 74.16 0.11 73.7 0.19 73.23 0.19L73.23 0.19Q72.22 0.19 71.79-0.19 71.37-0.56 71.37-1.44L71.37-1.44 71.37-13.32 66.9-13.32Q66.77-13.56 66.65-13.9 66.53-14.25 66.53-14.67L66.53-14.67Q66.53-15.42 66.86-15.77 67.19-16.13 67.78-16.13L67.78-16.13 79.37-16.13ZM84.2 0.05L84.2 0.05Q83.35 0.05 82.86-0.45 82.37-0.96 82.37-1.81L82.37-1.81 82.37-14.3Q82.37-15.15 82.86-15.64 83.35-16.13 84.2-16.13L84.2-16.13 93-16.13Q93.13-15.92 93.24-15.58 93.35-15.23 93.35-14.8L93.35-14.8Q93.35-14.11 93.03-13.74 92.71-13.37 92.15-13.37L92.15-13.37 85.72-13.37 85.72-9.6 92.2-9.6Q92.34-9.38 92.46-9.05 92.58-8.72 92.58-8.29L92.58-8.29Q92.58-6.86 91.35-6.86L91.35-6.86 85.72-6.86 85.72-2.74 93.11-2.74Q93.24-2.53 93.36-2.17 93.48-1.81 93.48-1.38L93.48-1.38Q93.48 0.05 92.26 0.05L92.26 0.05 84.2 0.05ZM98.5 0.19L98.5 0.19Q97.52 0.19 97.12-0.17 96.72-0.53 96.72-1.38L96.72-1.38 96.72-15.55Q97.01-15.92 97.59-16.13 98.16-16.35 98.85-16.35L98.85-16.35Q99.67-16.35 100.32-16.05 100.98-15.76 101.48-14.88L101.48-14.88 105.31-8Q105.84-7.04 106.33-6.02 106.82-5 107.19-4.15L107.19-4.15 107.3-4.17Q107.17-5.74 107.13-7.22 107.09-8.69 107.09-10.13L107.09-10.13 107.09-16.16Q107.3-16.21 107.74-16.28 108.18-16.35 108.63-16.35L108.63-16.35Q109.61-16.35 110.03-15.99 110.44-15.63 110.44-14.78L110.44-14.78 110.44-0.43Q110.15-0.13 109.6 0.03 109.06 0.19 108.31 0.19L108.31 0.19Q107.51 0.19 106.86-0.09 106.21-0.37 105.71-1.25L105.71-1.25 101.88-8.13Q101.35-9.06 100.86-10.11 100.36-11.16 99.99-12.01L99.99-12.01 99.83-11.99Q99.97-10.53 100.01-8.98 100.04-7.44 100.04-6.06L100.04-6.06 100.04-0.03Q99.83 0.03 99.41 0.11 98.98 0.19 98.5 0.19ZM125.3-8.13L125.3-8.13Q125.3-9.57 124.9-10.62 124.5-11.67 123.79-12.35 123.09-13.02 122.12-13.36 121.15-13.69 120.01-13.69L120.01-13.69Q119.39-13.69 118.9-13.65 118.41-13.61 117.96-13.56L117.96-13.56 117.96-2.63Q118.41-2.53 118.98-2.49 119.55-2.45 120.11-2.45L120.11-2.45Q122.58-2.45 123.94-3.88 125.3-5.32 125.3-8.13ZM128.83-8.16L128.83-8.16Q128.83-6.01 128.21-4.4 127.58-2.79 126.44-1.74 125.3-0.69 123.69-0.16 122.08 0.37 120.11 0.37L120.11 0.37Q119.66 0.37 119.13 0.36 118.6 0.35 118.03 0.28 117.45 0.21 116.88 0.11 116.31 0 115.81-0.19L115.81-0.19Q114.53-0.66 114.53-1.78L114.53-1.78 114.53-14.8Q114.53-15.28 114.8-15.55 115.06-15.81 115.54-15.97L115.54-15.97Q116.52-16.32 117.68-16.41 118.84-16.51 119.87-16.51L119.87-16.51Q121.87-16.51 123.53-15.99 125.19-15.47 126.36-14.43 127.53-13.4 128.18-11.83 128.83-10.26 128.83-8.16Z" transform="translate(-2.049999952316284, 16.559999465942383)"></path></g> <!----> <!----> <!----> <!----> <!----> <!----> <g data-gra="path-name-1" fill="#ffffff" transform="translate(0,19.989999771118164)"><g transform="scale(0.99733)"><path d="M9.34-4.73L9.34-4.73Q9.34-2.13 7.9-0.88 6.46 0.37 4.09 0.37L4.09 0.37Q2.51 0.37 1.59-0.1 0.66-0.58 0.66-1.64L0.66-1.64Q0.66-2.13 0.82-2.48 0.98-2.83 1.18-3.06L1.18-3.06Q1.67-2.91 2.16-2.8 2.65-2.68 3.23-2.68L3.23-2.68Q5.59-2.68 5.59-5.13L5.59-5.13 5.59-17.5Q5.85-17.56 6.34-17.64 6.83-17.73 7.32-17.73L7.32-17.73Q8.36-17.73 8.85-17.36 9.34-16.98 9.34-15.97L9.34-15.97 9.34-4.73ZM20.96 0.46L20.96 0.46Q19.23 0.46 17.88-0.01 16.52-0.49 15.58-1.37 14.65-2.25 14.16-3.47 13.67-4.7 13.67-6.23L13.67-6.23 13.67-17.5Q13.9-17.56 14.4-17.64 14.91-17.73 15.4-17.73L15.4-17.73Q16.43-17.73 16.91-17.36 17.39-16.98 17.39-15.97L17.39-15.97 17.39-6.37Q17.39-4.56 18.39-3.59 19.4-2.62 20.96-2.62L20.96-2.62Q22.52-2.62 23.53-3.59 24.54-4.56 24.54-6.37L24.54-6.37 24.54-17.5Q24.79-17.56 25.28-17.64 25.78-17.73 26.27-17.73L26.27-17.73Q27.3-17.73 27.79-17.36 28.28-16.98 28.28-15.97L28.28-15.97 28.28-6.23Q28.28-4.7 27.79-3.47 27.3-2.25 26.35-1.37 25.4-0.49 24.05-0.01 22.69 0.46 20.96 0.46ZM34.6 0.2L34.6 0.2Q33.53 0.2 33.1-0.19 32.67-0.58 32.67-1.5L32.67-1.5 32.67-16.87Q32.98-17.27 33.6-17.5 34.22-17.73 34.97-17.73L34.97-17.73Q35.87-17.73 36.57-17.41 37.28-17.1 37.83-16.15L37.83-16.15 41.98-8.68Q42.55-7.64 43.09-6.53 43.62-5.42 44.03-4.5L44.03-4.5 44.14-4.53Q44-6.23 43.95-7.83 43.91-9.43 43.91-10.98L43.91-10.98 43.91-17.53Q44.14-17.59 44.62-17.66 45.09-17.73 45.58-17.73L45.58-17.73Q46.65-17.73 47.1-17.34 47.54-16.95 47.54-16.03L47.54-16.03 47.54-0.46Q47.23-0.14 46.63 0.03 46.04 0.2 45.24 0.2L45.24 0.2Q44.37 0.2 43.66-0.1 42.96-0.4 42.41-1.36L42.41-1.36 38.26-8.82Q37.68-9.83 37.15-10.97 36.62-12.11 36.21-13.03L36.21-13.03 36.04-13Q36.18-11.42 36.23-9.74 36.27-8.07 36.27-6.57L36.27-6.57 36.27-0.03Q36.04 0.03 35.58 0.12 35.12 0.2 34.6 0.2ZM65.25-15.25L65.25-15.25Q65.25-14.68 64.93-14.26 64.61-13.84 64.21-13.61L64.21-13.61Q63.46-14.1 62.53-14.5 61.61-14.91 60.26-14.91L60.26-14.91Q57.81-14.91 56.35-13.32 54.89-11.73 54.89-8.74L54.89-8.74Q54.89-5.68 56.39-4.15 57.89-2.62 60.43-2.62L60.43-2.62Q61.76-2.62 62.72-2.98 63.69-3.34 64.44-3.83L64.44-3.83Q64.84-3.58 65.1-3.13 65.36-2.68 65.36-2.1L65.36-2.1Q65.36-1.61 65.1-1.21 64.84-0.81 64.24-0.49L64.24-0.49Q63.66-0.14 62.61 0.16 61.55 0.46 60 0.46L60 0.46Q58.09 0.46 56.47-0.1 54.84-0.66 53.63-1.8 52.42-2.94 51.72-4.67 51.03-6.4 51.03-8.74L51.03-8.74Q51.03-10.98 51.72-12.7 52.42-14.42 53.61-15.58 54.81-16.75 56.41-17.36 58.01-17.96 59.8-17.96L59.8-17.96Q61.04-17.96 62.04-17.75 63.05-17.53 63.77-17.15 64.5-16.78 64.87-16.29 65.25-15.8 65.25-15.25ZM81.39-17.5L81.39-17.5Q81.53-17.27 81.66-16.88 81.79-16.49 81.79-16.03L81.79-16.03Q81.79-15.25 81.43-14.85 81.07-14.44 80.44-14.44L80.44-14.44 76.46-14.44 76.46-0.03Q76.23 0.03 75.74 0.12 75.25 0.2 74.73 0.2L74.73 0.2Q73.63 0.2 73.17-0.2 72.71-0.61 72.71-1.56L72.71-1.56 72.71-14.44 67.87-14.44Q67.72-14.7 67.59-15.08 67.47-15.45 67.47-15.91L67.47-15.91Q67.47-16.72 67.83-17.11 68.19-17.5 68.82-17.5L68.82-17.5 81.39-17.5ZM86.67 0.2L86.67 0.2Q85.57 0.2 85.11-0.2 84.65-0.61 84.65-1.56L84.65-1.56 84.65-17.5Q84.91-17.56 85.4-17.64 85.89-17.73 86.38-17.73L86.38-17.73Q87.42-17.73 87.91-17.36 88.4-16.98 88.4-15.97L88.4-15.97 88.4-0.03Q88.14 0.03 87.66 0.12 87.19 0.2 86.67 0.2ZM109.41-8.76L109.41-8.76Q109.41-6.52 108.75-4.79 108.09-3.06 106.92-1.89 105.75-0.72 104.14-0.13 102.52 0.46 100.65 0.46L100.65 0.46Q98.78 0.46 97.16-0.13 95.55-0.72 94.38-1.89 93.21-3.06 92.55-4.79 91.89-6.52 91.89-8.76L91.89-8.76Q91.89-11.01 92.56-12.73 93.24-14.44 94.42-15.61 95.6-16.78 97.2-17.37 98.8-17.96 100.65-17.96L100.65-17.96Q102.5-17.96 104.1-17.37 105.7-16.78 106.88-15.61 108.06-14.44 108.74-12.73 109.41-11.01 109.41-8.76ZM105.58-8.76L105.58-8.76Q105.58-11.76 104.24-13.33 102.9-14.91 100.65-14.91L100.65-14.91Q98.43-14.91 97.09-13.35 95.75-11.79 95.75-8.76L95.75-8.76Q95.75-5.74 97.07-4.18 98.4-2.62 100.65-2.62L100.65-2.62Q102.9-2.62 104.24-4.18 105.58-5.74 105.58-8.76ZM114.83 0.2L114.83 0.2Q113.77 0.2 113.34-0.19 112.9-0.58 112.9-1.5L112.9-1.5 112.9-16.87Q113.22-17.27 113.84-17.5 114.46-17.73 115.21-17.73L115.21-17.73Q116.1-17.73 116.81-17.41 117.52-17.1 118.06-16.15L118.06-16.15 122.22-8.68Q122.79-7.64 123.33-6.53 123.86-5.42 124.26-4.5L124.26-4.5 124.38-4.53Q124.23-6.23 124.19-7.83 124.15-9.43 124.15-10.98L124.15-10.98 124.15-17.53Q124.38-17.59 124.85-17.66 125.33-17.73 125.82-17.73L125.82-17.73Q126.89-17.73 127.33-17.34 127.78-16.95 127.78-16.03L127.78-16.03 127.78-0.46Q127.46-0.14 126.87 0.03 126.28 0.2 125.47 0.2L125.47 0.2Q124.61 0.2 123.9-0.1 123.2-0.4 122.65-1.36L122.65-1.36 118.5-8.82Q117.92-9.83 117.39-10.97 116.85-12.11 116.45-13.03L116.45-13.03 116.28-13Q116.42-11.42 116.46-9.74 116.51-8.07 116.51-6.57L116.51-6.57 116.51-0.03Q116.28 0.03 115.82 0.12 115.35 0.2 114.83 0.2Z" transform="translate(-0.6600000262260437, 17.959999084472656)"></path></g></g></g></g> <g data-gra="path-slogan" fill-rule="" class="tp-slogan iconsvg-slogansvg" fill="#ffffff" transform="translate(-1.5047035217285156,44.360816955566406)"><rect width="0"></rect> <rect x="132.7899932861328" width="0"></rect> <g transform="translate(0,0)"><g transform="scale(1)"><path d="M2.94-2.12L1.37-2.12L1.62-2.92C1.71-3.21 1.80-3.50 1.89-3.79C1.97-4.08 2.05-4.38 2.13-4.68L2.16-4.68C2.25-4.38 2.33-4.08 2.42-3.79C2.50-3.50 2.59-3.21 2.69-2.92ZM3.10-1.59L3.60 0L4.30 0L2.54-5.22L1.79-5.22L0.02 0L0.70 0L1.20-1.59ZM4.66-2.61C4.66-2.19 4.72-1.81 4.83-1.47C4.95-1.13 5.11-0.85 5.31-0.62C5.52-0.39 5.76-0.21 6.04-0.09C6.31 0.03 6.62 0.10 6.95 0.10C7.28 0.10 7.58 0.03 7.84-0.10C8.10-0.24 8.33-0.42 8.54-0.66L8.16-1.07C7.99-0.88 7.82-0.74 7.63-0.64C7.44-0.54 7.22-0.49 6.96-0.49C6.71-0.49 6.49-0.54 6.29-0.64C6.09-0.74 5.92-0.88 5.79-1.07C5.65-1.25 5.54-1.48 5.46-1.74C5.39-2.00 5.35-2.30 5.35-2.63C5.35-2.95 5.39-3.24 5.47-3.50C5.55-3.76 5.66-3.98 5.80-4.17C5.94-4.35 6.12-4.49 6.32-4.59C6.52-4.69 6.75-4.73 6.99-4.73C7.22-4.73 7.41-4.69 7.58-4.60C7.75-4.52 7.90-4.40 8.04-4.25L8.41-4.67C8.26-4.84 8.06-4.99 7.82-5.12C7.58-5.25 7.30-5.32 6.99-5.32C6.65-5.32 6.34-5.25 6.06-5.13C5.78-5.00 5.53-4.82 5.32-4.59C5.12-4.36 4.95-4.07 4.84-3.74C4.72-3.41 4.66-3.03 4.66-2.61ZM9.51-5.22L9.51 0L12.60 0L12.60-0.56L10.17-0.56L10.17-2.46L12.15-2.46L12.15-3.02L10.17-3.02L10.17-4.66L12.52-4.66L12.52-5.22ZM16.15-2.02L16.15 0L16.82 0L16.82-2.02L18.39-5.22L17.70-5.22L17.03-3.75C16.95-3.56 16.86-3.37 16.77-3.18C16.68-3.00 16.59-2.81 16.50-2.61L16.47-2.61C16.38-2.81 16.30-3.00 16.22-3.18C16.14-3.37 16.06-3.56 15.97-3.75L15.29-5.22L14.59-5.22ZM20.91 0.10C21.24 0.10 21.54 0.03 21.82-0.10C22.09-0.22 22.32-0.40 22.52-0.64C22.72-0.88 22.88-1.16 22.98-1.50C23.09-1.84 23.15-2.21 23.15-2.63C23.15-3.05 23.09-3.42 22.98-3.75C22.88-4.08 22.72-4.36 22.52-4.60C22.32-4.83 22.09-5.00 21.82-5.13C21.54-5.25 21.24-5.32 20.91-5.32C20.58-5.32 20.28-5.25 20.01-5.13C19.74-5.01 19.50-4.83 19.30-4.60C19.11-4.37 18.96-4.09 18.85-3.76C18.74-3.43 18.68-3.05 18.68-2.63C18.68-2.21 18.74-1.84 18.85-1.50C18.96-1.16 19.11-0.88 19.30-0.64C19.50-0.40 19.74-0.22 20.01-0.10C20.28 0.03 20.58 0.10 20.91 0.10ZM20.91-0.49C20.68-0.49 20.47-0.54 20.28-0.64C20.09-0.74 19.93-0.88 19.79-1.07C19.66-1.26 19.55-1.48 19.48-1.75C19.41-2.01 19.37-2.30 19.37-2.63C19.37-2.96 19.41-3.25 19.48-3.51C19.55-3.77 19.66-3.99 19.79-4.17C19.93-4.35 20.09-4.49 20.28-4.59C20.47-4.69 20.68-4.73 20.91-4.73C21.15-4.73 21.36-4.69 21.54-4.59C21.73-4.49 21.89-4.35 22.03-4.17C22.17-3.99 22.27-3.77 22.34-3.51C22.42-3.25 22.46-2.96 22.46-2.63C22.46-2.30 22.42-2.01 22.34-1.75C22.27-1.48 22.17-1.26 22.03-1.07C21.89-0.88 21.73-0.74 21.54-0.64C21.36-0.54 21.15-0.49 20.91-0.49ZM24.25-5.22L24.25-2.16C24.25-1.74 24.29-1.38 24.39-1.10C24.48-0.81 24.62-0.58 24.78-0.40C24.95-0.22 25.15-0.10 25.38-0.02C25.61 0.06 25.86 0.10 26.12 0.10C26.39 0.10 26.64 0.06 26.86-0.02C27.09-0.10 27.29-0.22 27.46-0.40C27.62-0.58 27.76-0.81 27.85-1.10C27.95-1.38 27.99-1.74 27.99-2.16L27.99-5.22L27.36-5.22L27.36-2.14C27.36-1.83 27.33-1.56 27.26-1.35C27.20-1.14 27.11-0.97 27.00-0.84C26.89-0.72 26.76-0.62 26.61-0.57C26.46-0.51 26.30-0.49 26.12-0.49C25.95-0.49 25.80-0.51 25.65-0.57C25.50-0.62 25.37-0.72 25.26-0.84C25.15-0.97 25.07-1.14 25.00-1.35C24.94-1.56 24.91-1.83 24.91-2.14L24.91-5.22ZM30.06-2.75L30.06-4.69L30.94-4.69C31.35-4.69 31.66-4.62 31.88-4.48C32.09-4.34 32.20-4.10 32.20-3.76C32.20-3.42 32.09-3.16 31.88-3.00C31.66-2.83 31.35-2.75 30.94-2.75ZM32.27 0L33.02 0L31.69-2.28C32.05-2.37 32.33-2.53 32.55-2.78C32.76-3.02 32.86-3.35 32.86-3.76C32.86-4.03 32.82-4.25 32.73-4.44C32.64-4.63 32.51-4.78 32.35-4.89C32.19-5.01 32.00-5.09 31.77-5.14C31.54-5.19 31.30-5.22 31.03-5.22L29.40-5.22L29.40 0L30.06 0L30.06-2.20L31.01-2.20ZM35.63-5.22L35.63 0L36.26 0L36.26-2.73C36.26-3.01 36.25-3.28 36.23-3.55C36.22-3.83 36.20-4.10 36.17-4.36L36.21-4.36L36.77-3.29L38.66 0L39.35 0L39.35-5.22L38.72-5.22L38.72-2.52C38.72-2.25 38.73-1.97 38.75-1.68C38.77-1.40 38.78-1.12 38.80-0.86L38.77-0.86L38.20-1.94L36.32-5.22ZM40.78-5.22L40.78 0L43.87 0L43.87-0.56L41.44-0.56L41.44-2.46L43.42-2.46L43.42-3.02L41.44-3.02L41.44-4.66L43.79-4.66L43.79-5.22ZM45.90-2.70L44.38 0L45.08 0L45.83-1.41C45.90-1.54 45.96-1.67 46.03-1.80C46.10-1.94 46.17-2.08 46.25-2.24L46.28-2.24C46.37-2.08 46.44-1.94 46.51-1.80C46.59-1.67 46.66-1.54 46.73-1.41L47.49 0L48.22 0L46.70-2.67L48.13-5.22L47.43-5.22L46.73-3.88C46.67-3.76 46.61-3.64 46.55-3.53C46.50-3.42 46.43-3.28 46.36-3.13L46.33-3.13C46.25-3.28 46.18-3.42 46.12-3.53C46.06-3.64 45.99-3.76 45.92-3.88L45.21-5.22L44.48-5.22ZM49.98-4.66L49.98 0L50.65 0L50.65-4.66L52.22-4.66L52.22-5.22L48.40-5.22L48.40-4.66ZM54.77-5.22L54.77 0L55.43 0L55.43-2.34L57.42-2.34L57.42-2.90L55.43-2.90L55.43-4.66L57.78-4.66L57.78-5.22ZM59.36-2.75L59.36-4.69L60.24-4.69C60.65-4.69 60.96-4.62 61.18-4.48C61.39-4.34 61.50-4.10 61.50-3.76C61.50-3.42 61.39-3.16 61.18-3.00C60.96-2.83 60.65-2.75 60.24-2.75ZM61.57 0L62.31 0L60.99-2.28C61.35-2.37 61.63-2.53 61.84-2.78C62.06-3.02 62.16-3.35 62.16-3.76C62.16-4.03 62.12-4.25 62.03-4.44C61.94-4.63 61.81-4.78 61.65-4.89C61.49-5.01 61.29-5.09 61.07-5.14C60.84-5.19 60.60-5.22 60.33-5.22L58.70-5.22L58.70 0L59.36 0L59.36-2.20L60.31-2.20ZM65.25 0.10C65.58 0.10 65.88 0.03 66.15-0.10C66.43-0.22 66.66-0.40 66.86-0.64C67.06-0.88 67.21-1.16 67.32-1.50C67.43-1.84 67.49-2.21 67.49-2.63C67.49-3.05 67.43-3.42 67.32-3.75C67.21-4.08 67.06-4.36 66.86-4.60C66.66-4.83 66.43-5.00 66.15-5.13C65.88-5.25 65.58-5.32 65.25-5.32C64.92-5.32 64.62-5.25 64.35-5.13C64.07-5.01 63.84-4.83 63.64-4.60C63.45-4.37 63.29-4.09 63.19-3.76C63.08-3.43 63.02-3.05 63.02-2.63C63.02-2.21 63.08-1.84 63.19-1.50C63.29-1.16 63.45-0.88 63.64-0.64C63.84-0.40 64.07-0.22 64.35-0.10C64.62 0.03 64.92 0.10 65.25 0.10ZM65.25-0.49C65.02-0.49 64.81-0.54 64.62-0.64C64.43-0.74 64.27-0.88 64.13-1.07C64.00-1.26 63.89-1.48 63.82-1.75C63.74-2.01 63.71-2.30 63.71-2.63C63.71-2.96 63.74-3.25 63.82-3.51C63.89-3.77 64.00-3.99 64.13-4.17C64.27-4.35 64.43-4.49 64.62-4.59C64.81-4.69 65.02-4.73 65.25-4.73C65.48-4.73 65.69-4.69 65.88-4.59C66.07-4.49 66.23-4.35 66.37-4.17C66.50-3.99 66.61-3.77 66.68-3.51C66.76-3.25 66.79-2.96 66.79-2.63C66.79-2.30 66.76-2.01 66.68-1.75C66.61-1.48 66.50-1.26 66.37-1.07C66.23-0.88 66.07-0.74 65.88-0.64C65.69-0.54 65.48-0.49 65.25-0.49ZM68.61-5.22L68.61 0L69.24 0L69.24-2.73C69.24-3.01 69.23-3.28 69.21-3.55C69.19-3.83 69.17-4.10 69.15-4.36L69.18-4.36L69.75-3.29L71.64 0L72.32 0L72.32-5.22L71.70-5.22L71.70-2.52C71.70-2.25 71.71-1.97 71.72-1.68C71.74-1.40 71.76-1.12 71.78-0.86L71.74-0.86L71.18-1.94L69.29-5.22ZM74.84-4.66L74.84 0L75.51 0L75.51-4.66L77.08-4.66L77.08-5.22L73.26-5.22L73.26-4.66ZM78.02-5.22L78.02 0L81.11 0L81.11-0.56L78.68-0.56L78.68-2.46L80.66-2.46L80.66-3.02L78.68-3.02L78.68-4.66L81.03-4.66L81.03-5.22ZM82.22-5.22L82.22 0L82.84 0L82.84-2.73C82.84-3.01 82.84-3.28 82.82-3.55C82.80-3.83 82.78-4.10 82.76-4.36L82.79-4.36L83.35-3.29L85.25 0L85.93 0L85.93-5.22L85.30-5.22L85.30-2.52C85.30-2.25 85.31-1.97 85.33-1.68C85.35-1.40 85.37-1.12 85.38-0.86L85.35-0.86L84.79-1.94L82.90-5.22ZM87.36-5.22L87.36 0L88.70 0C89.09 0 89.44-0.06 89.74-0.18C90.05-0.30 90.30-0.47 90.51-0.70C90.71-0.92 90.87-1.20 90.98-1.52C91.08-1.85 91.14-2.22 91.14-2.63C91.14-3.47 90.93-4.11 90.51-4.55C90.09-5.00 89.48-5.22 88.67-5.22ZM88.62-0.54L88.02-0.54L88.02-4.68L88.62-4.68C89.23-4.68 89.69-4.50 89.99-4.15C90.30-3.80 90.45-3.30 90.45-2.63C90.45-1.97 90.30-1.46 89.99-1.09C89.69-0.72 89.23-0.54 88.62-0.54ZM93.87-5.22L93.87 0L94.53 0L94.53-5.22ZM95.96-5.22L95.96 0L96.59 0L96.59-2.73C96.59-3.01 96.58-3.28 96.56-3.55C96.54-3.83 96.52-4.10 96.50-4.36L96.53-4.36L97.10-3.29L98.99 0L99.67 0L99.67-5.22L99.05-5.22L99.05-2.52C99.05-2.25 99.06-1.97 99.07-1.68C99.09-1.40 99.11-1.12 99.13-0.86L99.09-0.86L98.53-1.94L96.64-5.22ZM102.19-4.66L102.19 0L102.86 0L102.86-4.66L104.43-4.66L104.43-5.22L100.61-5.22L100.61-4.66ZM105.37-5.22L105.37 0L108.46 0L108.46-0.56L106.03-0.56L106.03-2.46L108.01-2.46L108.01-3.02L106.03-3.02L106.03-4.66L108.38-4.66L108.38-5.22ZM110.23-2.75L110.23-4.69L111.10-4.69C111.51-4.69 111.82-4.62 112.04-4.48C112.26-4.34 112.37-4.10 112.37-3.76C112.37-3.42 112.26-3.16 112.04-3.00C111.82-2.83 111.51-2.75 111.10-2.75ZM112.43 0L113.18 0L111.86-2.28C112.21-2.37 112.50-2.53 112.71-2.78C112.92-3.02 113.03-3.35 113.03-3.76C113.03-4.03 112.98-4.25 112.89-4.44C112.80-4.63 112.68-4.78 112.51-4.89C112.35-5.01 112.16-5.09 111.93-5.14C111.71-5.19 111.46-5.22 111.20-5.22L109.57-5.22L109.57 0L110.23 0L110.23-2.20L111.17-2.20ZM113.36-5.22L115.03 0L115.80 0L117.46-5.22L116.78-5.22L115.95-2.40C115.86-2.09 115.77-1.80 115.70-1.54C115.63-1.27 115.54-0.98 115.45-0.68L115.41-0.68C115.31-0.98 115.23-1.27 115.16-1.54C115.08-1.80 115.00-2.09 114.90-2.40L114.07-5.22ZM118.18-5.22L118.18 0L118.84 0L118.84-5.22ZM120.27-5.22L120.27 0L123.36 0L123.36-0.56L120.93-0.56L120.93-2.46L122.91-2.46L122.91-3.02L120.93-3.02L120.93-4.66L123.28-4.66L123.28-5.22ZM123.93-5.22L125.03 0L125.82 0L126.59-3.14C126.64-3.34 126.68-3.54 126.73-3.74C126.77-3.93 126.81-4.13 126.86-4.33L126.89-4.33C126.93-4.13 126.97-3.93 127.01-3.74C127.05-3.54 127.10-3.34 127.14-3.14L127.93 0L128.73 0L129.81-5.22L129.17-5.22L128.62-2.38C128.57-2.10 128.52-1.82 128.47-1.54C128.42-1.26 128.38-0.98 128.33-0.69L128.30-0.69C128.23-0.98 128.17-1.26 128.11-1.54C128.04-1.82 127.98-2.10 127.92-2.38L127.19-5.22L126.59-5.22L125.86-2.38C125.80-2.10 125.74-1.82 125.68-1.54C125.62-1.26 125.55-0.98 125.50-0.69L125.46-0.69C125.42-0.98 125.37-1.26 125.31-1.54C125.26-1.81 125.21-2.09 125.16-2.38L124.61-5.22Z" transform="translate(-0.023872191956907624, 5.3155414090714315)"></path></g></g></g></g></g><defs v-gra="od"></defs></svg>